<?xml version="1.0" encoding="UTF-8" standalone="no"?>
<!-- Created with Inkscape (http://www.inkscape.org/) -->

<svg
   width="196.34532mm"
   height="30.43375mm"
   viewBox="0 0 196.34532 30.43375"
   version="1.1"
   id="svg1"
   xml:space="preserve"
   xmlns="http://www.w3.org/2000/svg"
   xmlns:svg="http://www.w3.org/2000/svg"><defs
     id="defs1" /><g
     id="layer1"
     transform="translate(-4.5312917,-66.535148)"><path
       style="fill:#ecd0ab;fill-opacity:1;stroke:#8d6440;stroke-width:1.32292;stroke-dasharray:none;stroke-opacity:1;paint-order:stroke fill markers"
       d="m 193.22084,89.707904 c -2.56564,-0.719427 -4.26268,-3.601943 -3.98508,-6.768832 0.31701,-3.616298 2.40351,-5.733107 5.63165,-5.713447 2.22201,0.01353 3.80833,0.959542 4.8285,2.879487 0.47528,0.894484 0.51924,1.167538 0.51924,3.224851 0,1.929502 -0.0638,2.388673 -0.45111,3.244166 -0.53056,1.172053 -1.79557,2.478297 -2.80818,2.899713 -1.04866,0.436427 -2.65448,0.537051 -3.73502,0.234062 z m 2.5759,-1.267026 c 0.60681,-0.852177 0.79267,-2.023107 0.79789,-5.02658 0.005,-3.057223 -0.2966,-4.553275 -1.02134,-5.0609 -1.14678,-0.803235 -2.12951,0.09184 -2.49774,2.274959 -0.26718,1.583994 -0.15615,5.687046 0.18446,6.816461 0.46893,1.554917 1.77392,2.067333 2.53673,0.99606 z"
       id="path13" /><path
       style="fill:#ecd0ab;fill-opacity:1;stroke:#8d6440;stroke-width:1.32292;stroke-dasharray:none;stroke-opacity:1;paint-order:stroke fill markers"
       d="m 166.4448,89.707904 c -2.56564,-0.719427 -4.26269,-3.601943 -3.98508,-6.768832 0.317,-3.616298 2.40351,-5.733107 5.63165,-5.713447 2.222,0.01353 3.80833,0.959542 4.82849,2.879487 0.47529,0.894484 0.51925,1.167538 0.51925,3.224851 0,1.929502 -0.0638,2.388673 -0.4511,3.244166 -0.53056,1.172053 -1.79558,2.478297 -2.80819,2.899713 -1.04866,0.436427 -2.65448,0.537051 -3.73502,0.234062 z m 2.57591,-1.267026 c 0.6068,-0.852177 0.79266,-2.023107 0.79788,-5.02658 0.005,-3.057223 -0.29661,-4.553275 -1.02134,-5.0609 -1.14678,-0.803235 -2.12951,0.09184 -2.49774,2.274959 -0.26717,1.583994 -0.15614,5.687046 0.18446,6.816461 0.46892,1.554917 1.77392,2.067333 2.53674,0.99606 z"
       id="path11" /><path
       style="fill:#ecd0ab;fill-opacity:1;stroke:#8d6440;stroke-width:1.32292;stroke-dasharray:none;stroke-opacity:1;paint-order:stroke fill markers"
       d="m 129.85453,89.781934 c -1.96803,-0.593258 -3.06424,-2.889807 -3.85565,-8.077626 -0.22159,-1.452496 -0.45376,-2.773509 -0.51596,-2.935583 -0.15923,-0.41493 -0.6313,-0.554379 -1.07424,-0.317326 -0.65545,0.350789 -0.43423,-0.173801 0.24834,-0.588899 0.97576,-0.593395 2.35668,-0.825317 3.21081,-0.539247 1.13689,0.380774 1.40605,0.932307 1.83656,3.763314 0.63029,4.144707 1.31173,5.956859 2.24,5.956859 1.12683,0 2.08016,-2.526326 2.10195,-5.570198 0.01,-1.372938 -0.0823,-2.208911 -0.30951,-2.809671 -0.42365,-1.12 -0.42281,-1.124103 0.28212,-1.369844 1.28059,-0.446414 1.70918,0.558977 1.48199,3.476439 -0.34142,4.384202 -1.76978,7.820235 -3.64372,8.765206 -0.92912,0.468523 -1.16858,0.498004 -2.00269,0.246576 z"
       id="path10" /><path
       style="fill:#ecd0ab;fill-opacity:1;stroke:#8d6440;stroke-width:1.32292;stroke-dasharray:none;stroke-opacity:1;paint-order:stroke fill markers"
       d="m 116.35357,89.707902 c -2.56564,-0.719427 -4.26268,-3.601943 -3.98508,-6.768832 0.31701,-3.616298 2.40351,-5.733107 5.63165,-5.713447 2.22201,0.01353 3.80833,0.959542 4.8285,2.879487 0.47528,0.894484 0.51925,1.167538 0.51925,3.224851 0,1.929502 -0.0638,2.388673 -0.45111,3.244166 -0.53056,1.172053 -1.79557,2.478297 -2.80819,2.899713 -1.04866,0.436427 -2.65448,0.537051 -3.73502,0.234062 z m 2.57591,-1.267026 c 0.6068,-0.852177 0.79267,-2.023107 0.79788,-5.02658 0.005,-3.057223 -0.2966,-4.553275 -1.02133,-5.0609 -1.14679,-0.803235 -2.12952,0.09184 -2.49775,2.274959 -0.26717,1.583994 -0.15614,5.687046 0.18446,6.816461 0.46893,1.554917 1.77392,2.067333 2.53674,0.99606 z"
       id="path9" /><path
       style="fill:#ecd0ab;fill-opacity:1;stroke:#8d6440;stroke-width:1.32292;stroke-dasharray:none;stroke-opacity:1;paint-order:stroke fill markers"
       d="m 107.08934,89.763892 c -0.34259,-0.101482 -0.80434,-0.415167 -1.02609,-0.697081 -0.38456,-0.488889 -0.40319,-0.755136 -0.40319,-5.76324 v -5.250672 h -0.68405 c -0.92378,0 -0.97516,-0.820548 0.0757,-0.846305 2.37095,-0.05811 1.22082,-0.02063 4.32185,0.06452 l 1.31926,-0.003 c 1.50595,-0.0034 1.70328,-0.08736 1.99229,-0.847514 0.26105,-0.686608 0.70938,-0.566326 0.65331,0.175274 -0.0758,1.002746 -0.65795,1.34823 -2.40546,1.427589 l -1.5594,0.07082 v 5.065079 5.065083 l 0.4557,0.207632 c 0.34615,0.157711 0.6338,0.133208 1.19654,-0.101917 0.98261,-0.410558 1.0357,-0.393649 0.5125,0.163273 -0.90271,0.96089 -3.24037,1.628439 -4.44893,1.270454 z"
       id="path8" /><path
       style="fill:#ecd0ab;fill-opacity:1;stroke:#8d6440;stroke-width:1.32292;stroke-dasharray:none;stroke-opacity:1;paint-order:stroke fill markers"
       d="m 48.997247,89.78227 c -1.96804,-0.593259 -3.064242,-2.889807 -3.855658,-8.077626 -0.221582,-1.452497 -0.453763,-2.773509 -0.515956,-2.935583 -0.159224,-0.41493 -0.631302,-0.554379 -1.074243,-0.317326 -0.655453,0.350789 -0.43423,-0.173801 0.248343,-0.588899 0.975761,-0.593396 2.356676,-0.825317 3.210807,-0.539247 1.13689,0.380774 1.406048,0.932306 1.836565,3.763313 0.630293,4.144708 1.311729,5.95686 2.239995,5.95686 1.126834,0 2.080158,-2.526327 2.101946,-5.570198 0.0098,-1.372938 -0.08226,-2.208912 -0.309506,-2.809671 -0.423654,-1.12 -0.422809,-1.124103 0.282126,-1.369844 1.280583,-0.446414 1.709174,0.558976 1.481983,3.476438 -0.34141,4.384203 -1.769778,7.820236 -3.643721,8.765207 -0.929112,0.468523 -1.168579,0.498004 -2.002681,0.246576 z"
       id="path5" /><path
       style="fill:#ecd0ab;fill-opacity:1;stroke:#8d6440;stroke-width:1.32292;stroke-dasharray:none;stroke-opacity:1;paint-order:stroke fill markers"
       d="m 26.17112,89.633114 c -0.376109,-0.187953 -0.792708,-0.571142 -0.925775,-0.851542 -0.269607,-0.56812 -0.881412,-5.128845 -1.229416,-9.164739 -0.125131,-1.451184 -0.249003,-2.661033 -0.275271,-2.688554 -0.108561,-0.113741 -2.088829,3.736332 -3.066051,5.961074 -1.009307,2.297789 -1.07447,2.392888 -1.637473,2.389911 -0.565973,-0.003 -0.660898,-0.148898 -2.733077,-4.200884 -1.180707,-2.308782 -2.214126,-4.197785 -2.296486,-4.197785 -0.08236,0 -0.151741,0.681616 -0.15418,1.514703 -0.0064,2.170373 -0.339043,6.233747 -0.60408,7.37807 -0.640439,2.765167 -2.187389,4.006635 -4.9925329,4.006635 -1.3018387,0 -2.5404432,-0.380685 -2.9339917,-0.901758 -0.1613613,-0.213645 -0.1717163,-0.465864 -0.035206,-0.857466 0.2433295,-0.698012 0.7793302,-0.933995 1.045591,-0.460338 0.1074944,0.191232 0.4305436,0.592955 0.7178858,0.892731 0.4258071,0.444234 0.6914769,0.545044 1.4363043,0.545044 1.8552335,0 2.9502305,-1.070409 3.3988875,-3.32257 0.264807,-1.329276 0.798417,-8.328747 0.798696,-10.47666 1.83e-4,-1.41052 -0.05226,-1.640493 -0.479076,-2.10104 -0.620486,-0.669516 -1.310169,-0.66425 -2.6614583,0.02032 -1.5875134,0.804244 -2.3077239,2.125274 -1.7385212,3.188839 0.2478474,0.463107 0.8285744,0.483891 1.5536075,0.0556 0.660558,-0.390202 1.116728,-0.249149 1.372848,0.424501 0.23619,0.621223 -0.171689,1.720444 -0.7540363,2.032107 -0.2170239,0.116147 -0.7894001,0.211177 -1.2719464,0.211177 -2.7573543,0 -3.2548145,-3.795956 -0.7664379,-5.84843 1.4912013,-1.22998 4.7368366,-1.918312 6.6253066,-1.405091 1.40668,0.382288 1.742597,0.823706 3.776099,4.962074 l 1.927365,3.922366 0.728132,-1.450657 c 2.746035,-5.470924 5.210268,-9.421697 6.72747,-10.785792 2.085297,-1.874861 4.780786,-1.521321 3.995886,0.524099 -0.173453,0.452008 -0.438248,0.382025 -1.055766,-0.279031 -0.49251,-0.527234 -0.606965,-0.56639 -1.104504,-0.377872 -1.30322,0.493791 -2.204884,1.966584 -2.212053,3.613206 -0.005,1.146716 0.849664,10.64036 1.264961,14.05135 0.323555,2.657489 0.51429,3.012009 1.445786,2.687288 0.77481,-0.270103 0.972637,0.03856 0.305053,0.476013 -0.574313,0.376304 -2.263506,0.855582 -3.013824,0.855124 -0.272185,-1.7e-4 -0.802608,-0.154084 -1.178717,-0.342029 z"
       id="path3" /><path
       style="fill:#ecd0ab;fill-opacity:1;stroke:#8d6440;stroke-width:1.32292;stroke-dasharray:none;stroke-opacity:1;paint-order:stroke fill markers"
       d="m 158.78069,91.665883 c -2.26017,-1.053847 -4.36234,-4.186839 -7.5311,-11.224123 -1.09975,-2.442369 -2.06713,-4.515452 -2.14973,-4.606853 -0.0826,-0.0914 -0.18926,2.107362 -0.23702,4.886139 -0.0691,4.018751 -0.15401,5.260337 -0.4152,6.069146 -0.65841,2.038856 -2.00881,2.997877 -4.42467,3.142284 -2.2371,0.133733 -3.52675,-0.560046 -3.10714,-1.671512 0.28794,-0.762684 0.69354,-0.720741 1.52962,0.158154 0.76403,0.803172 0.81054,0.821854 1.83461,0.736934 1.36354,-0.113079 2.10837,-0.654097 2.6986,-1.960185 0.45715,-1.01158 0.46742,-1.160227 0.52912,-7.656533 0.0691,-7.271113 0.12133,-6.951645 -1.13788,-6.953639 -1.4499,-0.0023 -3.34298,1.281839 -3.64117,2.469923 -0.30705,1.223361 0.60078,2.001837 1.58355,1.357908 0.66625,-0.436546 1.01924,-0.394289 1.38634,0.165957 0.7514,1.146788 -0.26782,2.451013 -1.91541,2.451013 -0.84302,0 -1.05765,-0.08724 -1.63493,-0.664515 -0.61142,-0.611416 -0.66451,-0.760403 -0.66451,-1.864519 0,-2.204911 1.32329,-3.794425 3.78019,-4.540683 1.70405,-0.51759 4.41075,-0.435671 5.44219,0.164709 0.72466,0.421819 0.8523,0.653944 4.16792,7.580038 l 2.14761,4.486221 0.11892,-4.09533 c 0.16415,-5.653656 0.64626,-7.28308 2.4713,-8.352483 0.9429,-0.552505 2.77736,-0.802552 3.98609,-0.543326 1.65329,0.354567 2.12445,1.045362 1.35832,1.9915 l -0.37182,0.459173 -0.77877,-0.877274 c -0.73066,-0.823075 -0.8387,-0.876431 -1.7486,-0.863624 -2.02029,0.02844 -3.06262,1.270706 -3.37964,4.027939 -0.10284,0.894482 -0.18765,3.738318 -0.18847,6.319634 l -0.001,4.6933 0.70904,1.072344 c 1.53915,2.327796 2.90074,3.307131 4.20093,3.02156 0.99548,-0.218645 0.59056,0.343706 -0.52535,0.729606 -1.39475,0.482322 -2.90998,0.441997 -4.09146,-0.108883 z"
       id="path2" /><path
       id="path12"
       style="fill:#ecd0ab;fill-opacity:1;stroke:#8d6440;stroke-width:1.32292;stroke-dasharray:none;stroke-opacity:1;paint-order:stroke fill markers"
       d="m 184.94974,77.208398 c -0.61255,-0.01386 -1.34367,0.188356 -2.07223,0.599964 -1.1709,0.661518 -1.39216,0.996845 -0.57877,0.877466 0.766,-0.112431 0.80883,0.114612 0.81183,4.3217 l 0.003,3.488676 -0.65319,0.65319 c -0.67622,0.676228 -1.47383,0.996731 -1.98799,0.799434 -0.5648,-0.216732 -0.68161,-1.14595 -0.68161,-5.426025 0,-2.526196 -0.0812,-4.452408 -0.19741,-4.669483 -0.28116,-0.525337 -1.39447,-0.791075 -2.29443,-0.54777 -0.7535,0.203711 -2.39302,1.13713 -2.39365,1.362708 -1.9e-4,0.0696 0.28523,0.113518 0.63458,0.09767 l 0.63563,-0.02894 0.0455,2.229321 c 0.001,0.893474 2.3e-4,2.204553 -0.0248,4.929932 -0.0596,6.496304 -0.0693,6.644801 -0.51108,7.65638 -0.57039,1.306089 -1.29041,1.847524 -2.60811,1.960604 -0.98965,0.08492 -1.03467,0.06627 -1.77302,-0.736906 -0.80798,-0.878889 -1.19968,-0.920809 -1.47795,-0.15813 -0.4055,1.111469 0.84049,1.804956 3.0024,1.671216 2.33466,-0.1444 4.16033,-1.605374 4.79661,-3.644222 0.17531,-0.561771 0.34311,-1.187543 0.45268,-2.848405 0.0499,0.01682 0.0965,0.03322 0.14935,0.05064 h 5.2e-4 c 0.87889,0.289226 2.23744,-0.177901 3.62045,-1.244885 0.55445,-0.427747 1.06618,-0.77773 1.13688,-0.77773 0.0707,0 0.12816,0.212894 0.12816,0.472839 0,0.74381 0.1983,1.082451 0.8232,1.405599 0.38592,0.199568 0.82416,0.2589 1.30742,0.17725 0.74476,-0.125822 2.7559,-1.166679 2.7559,-1.426269 0,-0.07947 -0.28626,-0.143366 -0.63562,-0.142627 l -0.6351,0.0021 -0.0977,-5.125269 c -0.0943,-4.945298 -0.1126,-5.140547 -0.52503,-5.552633 -0.2754,-0.275157 -0.6801,-0.416581 -1.15652,-0.427364 z" /><g
       id="g25"
       style="display:none"><path
         id="path24"
         d="m 87.634196,86.499861 c 0.680774,1.649196 2.140747,2.927615 3.824788,3.265764 1.597205,0.320718 3.358749,-0.07877 4.730469,-1.074219 1.001406,-0.726709 1.528945,-1.453125 1.056641,-1.453125 -0.15186,0 -0.382588,0.127613 -0.511719,0.283203 -0.129123,0.155583 -0.609167,0.426197 -1.068359,0.601563 -1.418613,0.541776 -2.940736,-0.120259 -3.863845,-1.623186 z"
         style="fill:#000000;stroke-width:0.738692" /><path
         id="path25"
         d=""
         style="fill:#ff0000;stroke-width:0.765" /></g><g
       id="g28"
       style="display:none"><path
         id="path27"
         d="m 87.634766,86.5 c 0.680771,1.64919 2.140183,2.927476 3.824218,3.265625 1.597202,0.320718 3.358752,-0.07877 4.730469,-1.074219 1.001403,-0.726706 1.528942,-1.453125 1.056641,-1.453125 -0.15186,0 -0.382588,0.127616 -0.511719,0.283203 -0.129123,0.155583 -0.60917,0.426197 -1.068359,0.601563 C 94.247406,88.66482 92.72584,88.002921 91.802734,86.5 Z"
         style="fill:#000000;stroke-width:0.738692" /><path
         id="path28"
         d=""
         style="fill:#ff0000;stroke-width:0.765" /></g><g
       id="g31"
       style="display:none"><path
         id="path30"
         d="m 87.634766,86.5 c 0.680771,1.64919 2.140183,2.927476 3.824218,3.265625 1.597202,0.320718 3.358752,-0.07877 4.730469,-1.074219 1.001403,-0.726706 1.528942,-1.453125 1.056641,-1.453125 -0.15186,0 -0.382588,0.127616 -0.511719,0.283203 -0.129123,0.155583 -0.60917,0.426197 -1.068359,0.601563 C 94.247406,88.66482 92.72584,88.002921 91.802734,86.5 Z"
         style="fill:#000000;stroke-width:0.738692" /><path
         id="path31"
         d=""
         style="fill:#ff0000;stroke-width:0.765" /></g><path
       id="path32"
       style="fill:#ecd0ab;fill-opacity:1;stroke:#8d6440;stroke-width:1.32292;stroke-dasharray:none;stroke-opacity:1;paint-order:stroke fill markers"
       d="m 94.668113,77.236422 c -4.10878,-0.02572 -7.180524,4.028523 -6.29264,8.305436 0.436434,2.102278 2.121169,3.832976 4.12275,4.234884 1.59719,0.320717 3.35874,-0.07993 4.730464,-1.075387 1.00134,-0.726709 1.52961,-1.451591 1.0573,-1.451591 -0.15186,0 -0.38195,0.127079 -0.51108,0.28267 -0.12913,0.155583 -0.61052,0.426665 -1.06971,0.602031 -1.573894,0.60108 -3.109824,-0.366281 -4.143934,-2.147156 -0.31178,-0.53693 -0.58306,-0.547217 2.16697,-1.680248 2.531714,-1.043082 2.540274,-0.715369 2.955974,-0.978008 0.41569,-0.262639 0.10265,-1.25456 -0.50273,-1.262257 -0.60538,-0.0077 -0.87112,0.653752 -1.211224,0.807862 -0.83469,0.378221 -1.43253,0.625916 -2.67047,1.082069 -0.44985,0.165757 -1.22954,0.469675 -1.28474,0.442565 -0.45859,-0.225218 -0.67575,-1.738719 -0.38985,-3.103682 0.20855,-0.995687 0.78033,-1.866383 1.20182,-2.261309 0.61323,-0.574568 0.9441,-0.785469 1.63145,-1.032555 0.80949,-0.290992 1.45443,0.08546 1.820064,0.438663 0.36563,0.353199 0.80797,0.665559 1.15059,0.423356 0.23357,-0.262464 0.23522,-0.649912 -0.086,-0.86313 -0.55662,-0.36944 -0.98515,-0.75364 -2.674964,-0.76422 z" /><path
       id="path33"
       style="fill:#ecd0ab;fill-opacity:1;stroke:#8d6440;stroke-width:1.32292;stroke-dasharray:none;stroke-opacity:1;paint-order:stroke fill markers"
       d="m 70.3583,77.235103 c -4.10878,-0.02572 -7.180524,4.028523 -6.29264,8.305436 0.436434,2.102278 2.121169,3.832976 4.12275,4.234884 1.59719,0.320717 3.35874,-0.07993 4.730464,-1.075387 1.00134,-0.726709 1.52961,-1.451591 1.0573,-1.451591 -0.15186,0 -0.38195,0.127079 -0.51108,0.28267 -0.12913,0.155583 -0.61052,0.426665 -1.06971,0.602031 -1.573894,0.60108 -3.109824,-0.366281 -4.143934,-2.147156 -0.31178,-0.53693 -0.58306,-0.547217 2.16697,-1.680248 2.531714,-1.043082 2.540274,-0.715369 2.955974,-0.978008 0.41569,-0.262639 0.10265,-1.25456 -0.50273,-1.262257 -0.60538,-0.0077 -0.87112,0.653752 -1.211224,0.807862 -0.83469,0.378221 -1.43253,0.625916 -2.67047,1.082069 -0.44985,0.165757 -1.22954,0.469675 -1.28474,0.442565 -0.45859,-0.225218 -0.67575,-1.738719 -0.38985,-3.103682 0.20855,-0.995687 0.78033,-1.866383 1.20182,-2.261309 0.61323,-0.574568 0.9441,-0.785469 1.63145,-1.032555 0.80949,-0.290992 1.45443,0.08546 1.820064,0.438663 0.36563,0.353199 0.80797,0.665559 1.15059,0.423356 0.23357,-0.262464 0.23522,-0.649912 -0.086,-0.86313 -0.55662,-0.36944 -0.98515,-0.75364 -2.674964,-0.76422 z" /><path
       style="fill:#ecd0ab;fill-opacity:1;stroke:#8d6440;stroke-width:1.32292;stroke-dasharray:none;stroke-opacity:1;paint-order:stroke fill markers"
       d="m 58.935164,89.763892 c -0.34259,-0.101482 -0.80434,-0.415167 -1.02609,-0.697081 -0.384557,-0.488889 -0.403187,-0.755136 -0.403187,-5.76324 v -5.250672 h -0.68405 c -0.92378,0 -0.97516,-0.820548 0.0757,-0.846305 2.370947,-0.05811 1.220817,-0.02063 4.321847,0.06452 l 1.31926,-0.003 c 1.505947,-0.0034 1.703277,-0.08736 1.992287,-0.847514 0.26105,-0.686608 0.70938,-0.566326 0.65331,0.175274 -0.0758,1.002746 -0.65795,1.34823 -2.405457,1.427589 l -1.5594,0.07082 v 5.065079 5.065083 l 0.4557,0.207632 c 0.34615,0.157711 0.6338,0.133208 1.19654,-0.101917 0.982607,-0.410558 1.035697,-0.393649 0.512497,0.163273 -0.902707,0.96089 -3.240367,1.628439 -4.448927,1.270454 z"
       id="path34" /><path
       id="path35"
       style="fill:#ecd0ab;fill-opacity:1;stroke:#8d6440;stroke-width:1.32292;stroke-dasharray:none;stroke-opacity:1;paint-order:stroke fill markers"
       d="m 31.838886,86.165802 c 0,1.400226 0.489917,2.286584 1.570447,2.840653 0.471678,0.241863 1.02017,0.439767 1.218531,0.439767 0.879926,0 2.13675,-0.484779 2.85874,-1.102775 l 0.783931,-0.671277 0.305408,0.590662 c 0.326567,0.631514 1.193498,1.18339 1.858801,1.18339 0.622439,0 1.800116,-0.549148 2.391069,-1.115178 0.5732,-0.549023 0.555558,-0.971519 -0.02532,-0.608748 -0.195768,0.12223 -0.499413,0.167106 -0.674894,0.09974 -0.281139,-0.107878 -0.318844,-0.611506 -0.318844,-4.239018 0,-4.405144 -0.09788,-4.971672 -1.003556,-5.805331 -0.790884,-0.727993 -2.102927,-1.08777 -3.454569,-1.09399 l -5e-6,-4e-6 c -1.531862,-0.007 -3.114996,0.440084 -4.048332,1.320333 -0.824224,0.777342 -0.941017,1.831932 -1.018293,2.442917 -0.261294,2.065939 -0.282255,2.497945 -0.443114,5.718859 z m 4.063581,-8.550369 c 1.728146,-0.601892 2.294097,0.973693 2.347266,2.441062 0,0 0.0024,0.923423 0.0061,1.588201 0.0038,0.664778 0.04547,3.936483 -0.173428,4.724711 -0.11214,0.403805 -0.392171,0.909159 -0.622184,1.123446 -0.425017,0.39596 -1.049664,0.500388 -1.439189,0.240295 -0.444813,-0.297014 -1.571656,-0.945069 -1.586116,-2.209337 -0.08234,-2.099392 0.0097,-3.988966 0.173914,-5.253203 0.164203,-1.264237 0.637232,-2.426568 1.293608,-2.655175 z" /><path
       id="path37"
       style="fill:#ecd0ab;fill-opacity:1;stroke:#8d6440;stroke-width:1.32292;stroke-dasharray:none;stroke-opacity:1;paint-order:stroke fill markers"
       d="m 81.330555,77.193951 c -0.28604,-0.01386 -0.627977,0.188356 -0.968185,0.599964 -0.546765,0.661517 -0.649688,0.996329 -0.269858,0.876949 0.357697,-0.112431 0.377752,0.114616 0.379146,4.3217 l 0.0019,3.488676 c 0,0.149974 0.0013,0.291384 0.0024,0.434598 -0.0031,0.343303 -0.0065,0.61795 -0.0096,0.919841 -0.34643,0.161061 -0.674807,0.202939 -0.92901,0.0987 -0.528563,-0.216732 -0.637888,-1.14647 -0.637888,-5.426542 0,-2.526194 -0.07646,-4.452408 -0.185222,-4.669483 -0.263121,-0.525336 -1.304536,-0.791075 -2.146737,-0.54777 -0.705156,0.203711 -2.239975,1.13713 -2.240564,1.362708 -1.78e-4,0.0696 0.267408,0.113516 0.594353,0.09767 l 0.594353,-0.02894 0.0914,4.788855 c 0.106462,5.574128 0.152075,5.731749 1.829009,6.322095 v -5.17e-4 c 0.744108,0.261949 1.855981,-0.09692 3.019662,-0.957564 -0.04414,3.430585 -0.114939,3.85118 -0.446854,4.663281 -0.533795,1.306089 -1.20761,1.847007 -2.440779,1.960087 -0.926155,0.08492 -0.967801,0.06627 -1.658779,-0.736906 -0.756141,-0.878889 -1.123188,-0.920809 -1.383605,-0.158129 -0.379483,1.111468 0.787053,1.804955 2.810249,1.671215 2.184872,-0.144399 3.892924,-1.605374 4.488382,-3.644222 0.193044,-0.66088 0.2023,-1.454751 0.232622,-3.878833 1.222648,0.95022 2.404589,1.35531 3.183602,1.081071 v 5.17e-4 c 1.676935,-0.590346 1.722548,-0.747967 1.829009,-6.322095 l 0.0914,-4.788855 0.594352,0.02894 c 0.326946,0.01585 0.594532,-0.02807 0.594354,-0.09767 -5.89e-4,-0.225578 -1.535408,-1.158997 -2.240555,-1.362708 -0.842211,-0.243305 -1.883625,0.02243 -2.146746,0.54777 -0.108763,0.217075 -0.185222,2.143289 -0.185222,4.669483 0,4.280072 -0.109315,5.20981 -0.637879,5.426542 -0.267117,0.109527 -0.615934,0.05853 -0.981736,-0.123507 l -0.0411,-4.637443 c -0.04398,-4.945293 -0.05304,-5.14003 -0.245677,-5.552116 -0.128594,-0.275156 -0.317232,-0.416581 -0.539709,-0.427364 z" /><path
       style="fill:#ecd0ab;fill-opacity:1;stroke:#8d6440;stroke-width:1.32292;stroke-dasharray:none;stroke-opacity:1;paint-order:stroke fill markers"
       d="m 37.599073,75.571592 c 0,0 5.068797,-1.65991 2.492101,-3.127475 -1.564969,-0.891332 -2.492101,3.127475 -2.492101,3.127475 z"
       id="path40" /><path
       style="fill:#ecd0ab;fill-opacity:1;stroke:#8d6440;stroke-width:1.32292;stroke-dasharray:none;stroke-opacity:1;paint-order:stroke fill markers"
       d="m 195.29083,75.571592 c 0,0 5.0688,-1.65991 2.4921,-3.127475 -1.56497,-0.891332 -2.4921,3.127475 -2.4921,3.127475 z"
       id="path41" /></g></svg>
